<?xml version="1.0" standalone="no"?>
<!DOCTYPE svg PUBLIC "-//W3C//DTD SVG 20010904//EN"
 "http://www.w3.org/TR/2001/REC-SVG-20010904/DTD/svg10.dtd">
<svg version="1.0" xmlns="http://www.w3.org/2000/svg"
 width="768.000000pt" height="768.000000pt" viewBox="0 0 768.000000 768.000000"
 preserveAspectRatio="xMidYMid meet">
<metadata>
Created by potrace 1.14, written by Peter Selinger 2001-2017
</metadata>
<g transform="translate(0.000000,768.000000) scale(0.100000,-0.100000)"
fill="#000000" stroke="none">
<path d="M2320 7080 c-8 -5 -17 -7 -21 -4 -11 6 -150 -24 -196 -42 -61 -24
-108 -46 -113 -53 -3 -3 -23 -18 -45 -33 -62 -41 -150 -130 -175 -179 -7 -13
-16 -26 -20 -29 -12 -8 -69 -125 -89 -182 -42 -122 -48 -144 -57 -212 -3 -22
-7 -43 -10 -47 -25 -41 -25 -563 0 -699 3 -14 8 -47 11 -75 6 -58 23 -153 45
-260 6 -27 13 -61 15 -75 3 -14 12 -54 21 -88 8 -35 14 -65 12 -67 -4 -3 -106
-36 -121 -39 -28 -5 -243 -80 -254 -89 -7 -5 -13 -7 -13 -4 0 8 -197 -75 -320
-136 -140 -68 -369 -209 -426 -262 -6 -5 -39 -35 -74 -65 -50 -44 -129 -131
-178 -195 -33 -44 -109 -190 -116 -223 -1 -9 -6 -24 -9 -32 -29 -79 -31 -273
-3 -374 21 -77 82 -197 136 -272 23 -32 84 -99 135 -149 145 -142 308 -251
545 -366 69 -33 137 -67 152 -75 16 -8 28 -13 28 -9 0 3 17 -3 37 -14 57 -28
291 -110 421 -146 34 -10 62 -21 62 -25 0 -4 -9 -45 -21 -91 -11 -46 -22 -93
-24 -104 -1 -11 -5 -31 -9 -45 -3 -14 -8 -38 -11 -55 -3 -16 -9 -55 -14 -85
-36 -200 -46 -320 -46 -540 0 -174 7 -288 21 -353 3 -12 7 -33 10 -47 13 -70
28 -128 41 -152 7 -16 11 -28 9 -28 -7 0 44 -120 58 -140 6 -8 20 -31 30 -50
60 -110 184 -225 304 -282 36 -16 77 -32 90 -34 14 -3 29 -7 33 -9 6 -4 49
-12 108 -20 14 -2 28 -4 31 -5 18 -6 226 6 239 14 3 2 24 7 45 10 22 4 60 13
85 22 25 9 54 16 64 17 9 1 17 4 17 8 0 4 13 9 28 12 15 3 67 24 116 46 48 23
91 41 97 41 5 0 9 4 9 8 0 5 17 16 38 25 21 9 58 30 83 45 163 105 209 137
209 144 0 4 7 8 15 8 8 0 15 4 15 9 0 5 8 12 18 15 10 4 27 14 38 24 10 9 57
48 104 87 108 88 170 143 257 227 l53 50 61 -59 c77 -73 72 -68 149 -133 36
-30 72 -62 80 -71 8 -8 65 -53 125 -98 61 -45 121 -91 135 -102 13 -10 30 -19
37 -19 7 0 13 -4 13 -10 0 -5 6 -10 14 -10 8 0 16 -4 18 -9 3 -9 52 -40 98
-63 14 -7 27 -15 30 -19 8 -8 257 -129 268 -129 5 0 31 -8 58 -19 68 -26 113
-39 154 -46 19 -3 42 -8 51 -11 44 -13 186 -19 264 -11 92 9 275 68 295 95 3
4 16 13 30 20 52 27 200 183 200 211 0 6 4 11 8 11 5 0 25 35 45 78 98 209
130 373 131 672 1 187 -7 351 -20 411 -2 13 -7 41 -9 62 -4 34 -18 116 -30
177 -14 68 -17 87 -20 105 -2 11 -13 58 -24 105 -12 47 -21 88 -21 92 0 3 15
10 33 14 38 9 38 9 57 16 46 17 207 70 220 73 14 3 133 48 175 65 157 67 256
115 348 166 101 57 211 126 215 136 2 5 10 8 18 8 8 0 14 4 14 9 0 4 17 20 39
34 77 51 281 265 281 296 0 6 4 11 8 11 10 0 90 157 95 186 2 11 7 26 10 34
17 44 26 126 23 215 -4 89 -21 191 -36 205 -3 3 -11 23 -19 45 -13 39 -94 178
-115 201 -6 6 -33 37 -61 69 -54 63 -217 205 -234 205 -6 0 -11 4 -11 8 0 4
-15 16 -32 27 -18 10 -35 21 -38 24 -9 11 -136 83 -250 143 -108 57 -317 143
-465 193 -77 26 -149 51 -160 55 -11 5 -42 14 -68 21 -46 11 -48 13 -41 42 3
16 7 35 8 41 2 9 26 114 31 136 7 31 16 71 20 95 3 17 9 55 15 85 5 30 12 73
15 95 3 22 7 56 10 75 21 145 27 512 11 635 -5 39 -10 80 -10 93 -1 12 -3 22
-6 22 -3 0 -7 10 -8 23 -4 37 -7 51 -16 65 -4 7 -6 16 -3 19 7 6 -34 117 -74
202 -64 136 -154 242 -270 317 -58 38 -199 101 -199 89 0 -3 -12 0 -27 6 -22
8 -110 19 -163 21 -157 3 -420 -64 -562 -142 -10 -6 -25 -10 -33 -10 -8 0 -15
-3 -15 -7 0 -5 -10 -13 -23 -18 -37 -18 -132 -70 -137 -75 -3 -3 -27 -19 -53
-34 -27 -15 -78 -49 -114 -74 -36 -26 -72 -51 -81 -57 -10 -5 -19 -12 -22 -15
-3 -3 -39 -32 -80 -64 -65 -52 -216 -180 -230 -197 -3 -3 -34 -31 -69 -63
l-63 -58 -37 35 c-224 221 -504 435 -736 563 -81 45 -220 114 -230 114 -2 0
-16 5 -32 12 -32 13 -25 11 -123 39 -41 12 -82 24 -90 27 -22 7 -45 10 -145
17 -49 3 -95 8 -101 10 -6 2 -17 -1 -24 -5z m115 -324 c118 -12 219 -43 360
-112 202 -97 347 -192 555 -365 107 -88 260 -230 260 -241 0 -8 -42 -58 -86
-102 -12 -12 -70 -79 -129 -151 -59 -71 -115 -139 -124 -150 -9 -11 -47 -60
-84 -110 -38 -49 -77 -100 -88 -111 -10 -12 -19 -27 -19 -33 0 -6 -4 -11 -8
-11 -4 0 -16 -15 -27 -32 -26 -45 -52 -71 -73 -74 -15 -3 -109 -13 -172 -19
-35 -4 -130 -16 -150 -20 -9 -2 -41 -6 -71 -10 -30 -3 -67 -9 -84 -11 -16 -3
-42 -7 -56 -9 -14 -2 -64 -11 -110 -20 -46 -9 -95 -18 -109 -20 -14 -2 -45 -8
-70 -14 -25 -5 -60 -13 -79 -16 -19 -3 -38 -8 -42 -11 -9 -5 -18 8 -24 33 -37
147 -77 356 -91 473 -3 25 -8 59 -10 75 -10 57 -12 430 -2 495 5 36 11 74 12
85 2 11 6 29 9 40 3 11 8 31 11 45 7 44 48 142 81 199 41 69 111 136 171 162
45 21 170 48 189 43 6 -2 33 -6 60 -8z m2951 -1 c156 -21 279 -143 345 -347
25 -76 26 -78 44 -198 14 -91 15 -445 1 -510 -2 -14 -7 -52 -11 -85 -3 -33 -8
-69 -10 -80 -5 -23 -13 -63 -21 -115 -10 -66 -55 -265 -64 -287 -8 -19 -13
-21 -37 -13 -15 5 -41 11 -58 14 -44 7 -87 15 -115 22 -14 3 -36 8 -50 10 -14
2 -41 7 -60 10 -19 4 -44 8 -55 9 -11 2 -33 6 -50 9 -30 6 -94 15 -150 21 -16
2 -30 4 -30 5 0 2 -99 15 -192 25 -27 3 -68 8 -93 11 -25 4 -55 6 -66 6 -20
-1 -52 32 -104 108 -22 32 -182 243 -195 256 -5 6 -19 23 -30 38 -11 15 -30
38 -42 52 -12 13 -34 41 -50 61 -15 21 -31 40 -34 43 -15 11 -189 214 -189
220 0 5 134 132 187 177 12 10 40 34 63 53 23 19 51 43 63 54 121 102 341 244
498 319 156 75 246 102 374 114 33 3 62 7 64 9 2 2 7 2 11 -1 3 -2 29 -7 56
-10z m-1483 -1017 c31 -35 66 -74 77 -88 12 -14 40 -47 63 -74 69 -80 217
-270 217 -277 0 -3 -37 -4 -82 -2 -96 5 -567 5 -680 0 -43 -2 -78 -1 -78 1 0
5 41 63 55 78 5 6 24 29 40 50 103 132 313 374 325 374 4 0 33 -28 63 -62z
m307 -763 c96 -4 195 -9 220 -11 25 -1 52 -3 62 -3 16 -1 98 -110 98 -131 0
-5 3 -10 8 -10 4 0 18 -20 32 -45 14 -25 28 -45 33 -45 4 0 6 -4 3 -9 -4 -5
-3 -11 1 -13 9 -3 53 -64 53 -72 0 -5 36 -65 88 -146 9 -14 17 -27 17 -30 0
-3 8 -16 17 -30 22 -35 128 -221 128 -225 0 -2 13 -27 30 -55 16 -27 27 -50
23 -50 -3 0 1 -8 9 -17 9 -10 45 -78 81 -152 l66 -134 -84 -163 c-93 -182
-235 -437 -326 -587 -32 -55 -59 -102 -59 -107 0 -4 -7 -10 -15 -14 -8 -3 -15
-10 -15 -16 0 -6 -38 -69 -86 -140 -73 -111 -89 -130 -112 -131 -15 -1 -43 -2
-62 -4 -231 -18 -688 -23 -960 -10 -244 11 -254 12 -277 19 -20 6 -93 105 -93
126 0 5 -4 10 -8 10 -5 0 -15 12 -23 28 -8 15 -18 32 -22 37 -15 19 -73 111
-141 225 -68 114 -88 148 -129 225 -12 22 -24 42 -27 45 -7 7 -34 59 -146 277
l-94 182 99 193 c54 106 123 236 153 289 30 52 57 102 61 110 4 8 32 54 62
103 30 49 55 93 55 97 0 5 5 9 10 9 6 0 10 6 10 14 0 8 6 21 14 28 7 8 21 29
31 48 9 18 21 38 26 44 6 6 33 47 61 91 29 44 56 82 60 83 4 2 8 9 8 17 0 7 6
18 14 25 15 12 41 14 331 25 94 4 171 8 172 8 4 4 387 -2 543 -8z m-1460 -71
c0 -7 -5 -16 -11 -19 -5 -4 -14 -17 -20 -28 -5 -12 -34 -62 -64 -110 -30 -48
-55 -92 -55 -98 0 -5 -3 -9 -8 -9 -4 0 -13 -15 -21 -32 -8 -18 -18 -35 -22
-38 -4 -3 -23 -34 -42 -70 -19 -36 -43 -81 -53 -100 -11 -19 -21 -37 -24 -40
-3 -3 -25 -44 -50 -92 -48 -93 -51 -94 -79 -18 -7 19 -17 44 -22 55 -22 53
-42 104 -55 145 -9 25 -21 59 -28 75 -11 24 -66 182 -71 205 -1 3 -4 12 -8 20
-18 44 -13 52 38 66 28 7 72 16 98 19 27 2 52 7 55 9 8 5 180 36 227 41 17 2
44 6 60 9 17 3 50 8 75 11 25 4 46 8 48 9 8 8 32 1 32 -10z m2325 -9 c28 -4
64 -9 81 -11 27 -3 308 -56 374 -69 46 -10 52 -14 45 -33 -8 -19 -104 -291
-108 -307 -11 -39 -51 -137 -58 -141 -5 -3 -9 -16 -9 -30 0 -13 -4 -24 -8 -24
-5 0 -9 -6 -9 -12 0 -17 -32 -92 -37 -87 -2 2 -20 38 -42 79 -21 41 -41 77
-44 80 -3 3 -18 31 -35 63 -52 101 -143 256 -237 405 -32 51 -58 97 -58 101 0
4 21 5 48 1 26 -4 70 -11 97 -15z m895 -192 c8 -2 15 -4 15 -3 0 1 14 -4 30
-10 17 -7 37 -13 45 -15 8 -2 35 -11 60 -20 25 -9 52 -18 60 -20 8 -2 51 -18
95 -35 457 -180 748 -384 873 -610 54 -96 64 -241 24 -332 -69 -157 -210 -297
-443 -441 -42 -26 -79 -47 -83 -47 -4 0 -20 -8 -34 -18 -26 -17 -226 -112
-247 -117 -5 -1 -23 -8 -40 -14 -43 -18 -139 -55 -145 -56 -3 0 -30 -9 -60
-20 -30 -10 -59 -20 -65 -21 -5 -2 -44 -14 -86 -27 l-76 -24 -10 26 c-6 14
-23 64 -38 111 -63 195 -198 541 -280 717 -31 67 -33 75 -20 100 7 16 20 44
28 63 8 19 24 55 35 80 11 25 35 81 52 125 32 80 35 89 64 155 33 78 153 419
161 460 2 8 4 16 4 17 1 1 16 -3 34 -8 17 -6 39 -13 47 -16z m-4158 -48 c26
-80 108 -314 121 -345 6 -14 11 -27 12 -30 15 -45 189 -456 197 -466 5 -7 -4
-39 -25 -85 -63 -135 -77 -168 -77 -174 0 -3 -9 -25 -19 -48 -46 -101 -164
-419 -211 -568 l-21 -67 -42 13 c-333 102 -618 222 -807 338 -173 107 -331
250 -386 347 -10 19 -23 38 -27 41 -5 3 -8 8 -7 10 1 2 -5 22 -15 44 -22 52
-28 180 -11 236 28 94 95 190 201 292 65 63 262 200 348 242 28 14 59 30 67
34 40 23 120 62 122 60 2 -1 19 5 38 14 68 30 135 59 150 63 8 2 87 29 175 59
88 30 168 54 178 52 13 -1 25 -20 39 -62z m3594 -1371 c99 -260 175 -482 166
-488 -8 -4 -89 -22 -137 -31 -16 -3 -77 -14 -135 -25 -58 -11 -123 -22 -145
-25 -22 -3 -58 -8 -80 -12 -22 -3 -55 -7 -73 -9 -18 -2 -42 -6 -53 -9 -10 -4
-19 -4 -19 0 0 9 36 74 82 145 22 36 51 81 62 101 129 224 148 257 192 339 16
30 31 57 34 60 3 3 14 24 25 48 l19 44 18 -35 c9 -19 29 -66 44 -103z m-3019
36 c55 -104 91 -170 103 -190 5 -8 33 -55 61 -105 29 -49 59 -98 67 -107 8
-10 11 -18 7 -18 -4 0 -1 -8 7 -17 8 -10 36 -54 63 -98 27 -44 53 -82 58 -84
5 -2 4 -7 -2 -11 -7 -4 -65 1 -129 11 -64 10 -119 17 -122 17 -3 0 -7 0 -10 2
-3 1 -16 3 -30 6 -110 19 -301 56 -325 63 -17 4 -29 14 -28 22 4 36 134 393
196 539 12 28 14 35 16 51 3 25 25 -2 68 -81z m-322 -846 c14 -2 37 -7 53 -10
15 -3 37 -7 49 -9 12 -2 36 -6 55 -11 18 -4 42 -8 53 -10 11 -2 30 -5 41 -8
19 -4 62 -12 119 -21 11 -2 43 -6 70 -9 28 -4 57 -9 65 -11 8 -2 42 -7 75 -11
33 -4 74 -9 90 -11 17 -2 46 -6 65 -7 19 -2 67 -7 105 -12 39 -4 73 -7 77 -6
4 1 44 -49 89 -111 45 -61 89 -118 96 -125 7 -7 13 -16 13 -20 0 -4 13 -21 28
-39 15 -17 38 -46 52 -64 14 -18 30 -37 35 -43 6 -6 39 -47 74 -91 35 -44 74
-90 85 -101 12 -12 39 -43 61 -69 22 -26 52 -60 68 -76 15 -15 27 -31 27 -36
0 -10 -67 -75 -174 -168 -38 -33 -77 -67 -86 -76 -48 -45 -330 -249 -345 -249
-3 0 -15 -9 -27 -20 -12 -10 -25 -17 -30 -14 -4 3 -8 1 -8 -4 0 -12 -219 -116
-309 -147 -39 -13 -71 -22 -71 -19 0 3 -8 0 -18 -5 -19 -10 -138 -25 -182 -23
-170 9 -291 89 -367 243 -25 52 -53 123 -58 149 -1 3 -5 21 -10 40 -4 19 -10
46 -12 60 -1 14 -6 48 -10 75 -15 105 -7 495 12 590 3 11 7 36 9 55 11 76 19
119 38 210 11 52 21 100 22 105 2 6 6 28 11 50 10 51 23 77 36 70 5 -4 21 -8
34 -11z m3610 -20 c3 -10 18 -80 34 -154 27 -126 33 -158 47 -250 3 -19 7 -45
9 -57 20 -122 27 -474 11 -593 -25 -200 -82 -343 -175 -439 -84 -89 -159 -119
-289 -119 -149 0 -297 43 -482 140 -100 52 -305 179 -320 197 -3 3 -39 31 -81
62 -41 31 -82 63 -90 70 -8 8 -30 27 -49 43 -72 59 -220 199 -220 208 0 5 20
30 44 56 49 52 70 76 124 141 43 51 65 77 95 111 27 30 234 299 302 393 27 37
52 68 57 68 4 1 11 2 16 3 4 2 39 6 77 10 39 4 81 9 95 11 14 2 50 7 80 10 30
3 66 8 80 10 14 2 61 9 105 15 44 7 89 14 100 16 10 2 37 6 60 9 22 3 47 8 55
10 8 3 35 7 59 10 23 3 47 7 51 10 4 3 25 7 46 10 22 3 62 11 89 18 53 14 63
12 70 -19z m-1835 -155 c184 0 352 2 372 5 45 6 56 -6 28 -34 -11 -11 -20 -23
-20 -26 0 -3 -6 -11 -12 -18 -7 -7 -24 -28 -38 -46 -14 -18 -33 -42 -42 -54
-10 -11 -29 -34 -42 -51 -67 -81 -146 -174 -193 -224 l-53 -56 -56 59 c-30 33
-72 80 -92 105 -20 25 -46 55 -57 66 -11 12 -31 36 -45 54 -14 18 -30 38 -35
44 -37 43 -135 171 -135 177 0 3 19 5 43 3 23 -2 193 -4 377 -4z"/>
<path d="M3778 4455 c-2 -2 -19 -5 -38 -8 -102 -14 -201 -56 -295 -127 -60
-45 -90 -75 -150 -153 -19 -25 -66 -117 -59 -117 3 0 2 -6 -4 -12 -34 -41 -57
-248 -39 -350 9 -48 48 -170 60 -186 5 -7 17 -26 26 -42 24 -45 110 -142 158
-178 43 -33 173 -106 173 -98 0 3 16 -2 36 -10 60 -25 192 -35 299 -21 94 12
234 72 293 127 12 11 22 19 22 16 0 -7 52 47 91 95 116 144 162 317 136 509
-14 100 -73 240 -127 300 -8 9 -27 30 -41 46 -86 97 -228 175 -366 200 -30 6
-171 12 -175 9z"/>
</g>
</svg>
